<svg xmlns="http://www.w3.org/2000/svg" viewBox="0 0 900 1280" role="img" aria-labelledby="t7 d7">
  <title id="t7">双页全景</title>
  <desc id="d7">黑白漫画感示例页面 7</desc>
  <defs>
    <linearGradient id="g7" x1="0" x2="1" y1="0" y2="1">
      <stop offset="0%" stop-color="#0b2230"/>
      <stop offset="100%" stop-color="#ffffff"/>
    </linearGradient>
    <filter id="noise7"><feTurbulence type="fractalNoise" baseFrequency="0.9" numOctaves="2" stitchTiles="stitch"/><feColorMatrix values="0 0 0 0 0  0 0 0 0 0  0 0 0 0 0  0 0 0 .08 0"/></filter>
  </defs>
  <rect width="900" height="1280" fill="#fefefe"/>
  <rect x="28" y="28" width="844" height="1224" rx="30" fill="url(#g7)"/>
  <rect x="54" y="56" width="368" height="360" rx="22" fill="#fff" stroke="#111" stroke-width="8"/>
  <rect x="474" y="56" width="372" height="540" rx="22" fill="#fff" stroke="#111" stroke-width="8"/>
  <rect x="54" y="442" width="368" height="382" rx="22" fill="#fff" stroke="#111" stroke-width="8"/>
  <rect x="54" y="850" width="792" height="318" rx="22" fill="#fff" stroke="#111" stroke-width="8"/>
  <circle cx="238" cy="234" r="110" fill="none" stroke="#111" stroke-width="10"/>
  <path d="M176 290c26-120 90-182 156-166 64 16 84 94 98 144" fill="none" stroke="#111" stroke-width="12" stroke-linecap="round"/>
  <path d="M562 118c90 40 162 136 168 228 8 118-82 204-166 198-88-6-132-90-114-164 16-70 84-134 174-142" fill="none" stroke="#111" stroke-width="12" stroke-linecap="round"/>
  <path d="M560 366c72-10 138 12 194 68" fill="none" stroke="#111" stroke-width="10" stroke-linecap="round"/>
  <path d="M146 760c34-88 88-130 162-126 78 4 126 46 146 126" fill="none" stroke="#111" stroke-width="12" stroke-linecap="round"/>
  <path d="M124 986c90-76 184-122 280-138 160-28 298 2 424 150" fill="none" stroke="#111" stroke-width="14" stroke-linecap="round"/>
  <path d="M156 1100c114-42 232-60 354-54 86 4 178 20 280 58" fill="none" stroke="#111" stroke-width="8" stroke-dasharray="18 20" stroke-linecap="round"/>
  <rect x="104" y="110" width="68" height="24" rx="12" fill="#72f4ff"/>
  <rect x="540" y="100" width="82" height="24" rx="12" fill="#72f4ff"/>
  <rect x="92" y="894" width="96" height="24" rx="12" fill="#72f4ff"/>
  <text x="86" y="124" font-size="30" font-family="Arial, sans-serif" font-weight="700">P.07</text>
  <text x="96" y="1020" font-size="86" font-family="Arial, sans-serif" font-weight="800" fill="#111">双页全景</text>
  <text x="96" y="1088" font-size="30" font-family="Arial, sans-serif" fill="#333">WIDE / BLOOM / LIGHT</text>
  <text x="516" y="182" font-size="52" font-family="Arial, sans-serif" font-weight="800" fill="#72f4ff">WIDE</text>
  <text x="158" y="680" font-size="46" font-family="Arial, sans-serif" font-weight="800" fill="#111">BLOOM</text>
  <text x="664" y="486" font-size="72" font-family="Arial, sans-serif" font-weight="800" fill="#111">LIGHT</text>
  <rect x="28" y="28" width="844" height="1224" rx="30" fill="transparent" filter="url(#noise7)"/>
</svg>